<mxfile host="app.diagrams.net" modified="2023-05-29T07:12:16.233Z" agent="Mozilla/5.0 (Windows NT 10.0; Win64; x64) AppleWebKit/537.36 (KHTML, like Gecko) Chrome/113.0.0.0 Safari/537.36" etag="pLv4Eu7bx8PZSC8H_5AM" version="21.3.5" type="device">
  <diagram name="Page-1" id="qTA_YOAWyfbWpafh2N3F">
    <mxGraphModel dx="1050" dy="623" grid="1" gridSize="10" guides="1" tooltips="1" connect="1" arrows="1" fold="1" page="1" pageScale="1" pageWidth="827" pageHeight="1169" math="0" shadow="0">
      <root>
        <mxCell id="0" />
        <mxCell id="1" parent="0" />
        <mxCell id="i_B0SPoR_XHPY7qdFwwD-5" style="edgeStyle=orthogonalEdgeStyle;rounded=0;orthogonalLoop=1;jettySize=auto;html=1;entryX=0.5;entryY=0;entryDx=0;entryDy=0;" parent="1" source="i_B0SPoR_XHPY7qdFwwD-1" target="i_B0SPoR_XHPY7qdFwwD-3" edge="1">
          <mxGeometry relative="1" as="geometry">
            <Array as="points">
              <mxPoint x="430" y="210" />
              <mxPoint x="580" y="210" />
            </Array>
          </mxGeometry>
        </mxCell>
        <mxCell id="C2cPm4QwembAdfxZf4zH-2" style="edgeStyle=orthogonalEdgeStyle;rounded=0;orthogonalLoop=1;jettySize=auto;html=1;entryX=0.5;entryY=0;entryDx=0;entryDy=0;" edge="1" parent="1" source="i_B0SPoR_XHPY7qdFwwD-1" target="C2cPm4QwembAdfxZf4zH-1">
          <mxGeometry relative="1" as="geometry">
            <Array as="points">
              <mxPoint x="431" y="210" />
              <mxPoint x="260" y="210" />
            </Array>
          </mxGeometry>
        </mxCell>
        <mxCell id="i_B0SPoR_XHPY7qdFwwD-1" value="Online Teacher Trainer system" style="rounded=0;whiteSpace=wrap;html=1;" parent="1" vertex="1">
          <mxGeometry x="371" y="125" width="120" height="60" as="geometry" />
        </mxCell>
        <mxCell id="i_B0SPoR_XHPY7qdFwwD-2" value="User registration and authentication" style="rounded=0;whiteSpace=wrap;html=1;" parent="1" vertex="1">
          <mxGeometry x="280" y="356" width="120" height="60" as="geometry" />
        </mxCell>
        <mxCell id="i_B0SPoR_XHPY7qdFwwD-20" style="edgeStyle=orthogonalEdgeStyle;rounded=0;orthogonalLoop=1;jettySize=auto;html=1;entryX=0;entryY=0.5;entryDx=0;entryDy=0;" parent="1" source="i_B0SPoR_XHPY7qdFwwD-3" target="i_B0SPoR_XHPY7qdFwwD-9" edge="1">
          <mxGeometry relative="1" as="geometry" />
        </mxCell>
        <mxCell id="i_B0SPoR_XHPY7qdFwwD-21" style="edgeStyle=orthogonalEdgeStyle;rounded=0;orthogonalLoop=1;jettySize=auto;html=1;entryX=0;entryY=0.5;entryDx=0;entryDy=0;" parent="1" source="i_B0SPoR_XHPY7qdFwwD-3" target="i_B0SPoR_XHPY7qdFwwD-8" edge="1">
          <mxGeometry relative="1" as="geometry" />
        </mxCell>
        <mxCell id="i_B0SPoR_XHPY7qdFwwD-22" style="edgeStyle=orthogonalEdgeStyle;rounded=0;orthogonalLoop=1;jettySize=auto;html=1;entryX=0;entryY=0.5;entryDx=0;entryDy=0;" parent="1" source="i_B0SPoR_XHPY7qdFwwD-3" target="i_B0SPoR_XHPY7qdFwwD-7" edge="1">
          <mxGeometry relative="1" as="geometry" />
        </mxCell>
        <mxCell id="i_B0SPoR_XHPY7qdFwwD-3" value="Communication and Collaboration System" style="rounded=0;whiteSpace=wrap;html=1;" parent="1" vertex="1">
          <mxGeometry x="520" y="265" width="120" height="60" as="geometry" />
        </mxCell>
        <mxCell id="i_B0SPoR_XHPY7qdFwwD-6" value="Profile management" style="rounded=0;whiteSpace=wrap;html=1;" parent="1" vertex="1">
          <mxGeometry x="280" y="425" width="120" height="60" as="geometry" />
        </mxCell>
        <mxCell id="i_B0SPoR_XHPY7qdFwwD-7" value="Real-time communication and collaboration" style="rounded=0;whiteSpace=wrap;html=1;" parent="1" vertex="1">
          <mxGeometry x="610" y="360" width="120" height="60" as="geometry" />
        </mxCell>
        <mxCell id="i_B0SPoR_XHPY7qdFwwD-8" value="Discussion forums, chat rooms, and messaging." style="rounded=0;whiteSpace=wrap;html=1;" parent="1" vertex="1">
          <mxGeometry x="610" y="430" width="120" height="60" as="geometry" />
        </mxCell>
        <mxCell id="i_B0SPoR_XHPY7qdFwwD-9" value="Discussion forums, chat rooms, and messaging." style="rounded=0;whiteSpace=wrap;html=1;" parent="1" vertex="1">
          <mxGeometry x="610" y="500" width="120" height="60" as="geometry" />
        </mxCell>
        <mxCell id="i_B0SPoR_XHPY7qdFwwD-11" value="Password management" style="rounded=0;whiteSpace=wrap;html=1;" parent="1" vertex="1">
          <mxGeometry x="280" y="495" width="120" height="60" as="geometry" />
        </mxCell>
        <mxCell id="i_B0SPoR_XHPY7qdFwwD-12" value="User data storage" style="rounded=0;whiteSpace=wrap;html=1;" parent="1" vertex="1">
          <mxGeometry x="280" y="565" width="120" height="60" as="geometry" />
        </mxCell>
        <mxCell id="i_B0SPoR_XHPY7qdFwwD-13" value="Access control and permissions" style="rounded=0;whiteSpace=wrap;html=1;" parent="1" vertex="1">
          <mxGeometry x="280" y="635" width="120" height="60" as="geometry" />
        </mxCell>
        <mxCell id="i_B0SPoR_XHPY7qdFwwD-14" value="Account activation and deactivation" style="rounded=0;whiteSpace=wrap;html=1;" parent="1" vertex="1">
          <mxGeometry x="280" y="705" width="120" height="60" as="geometry" />
        </mxCell>
        <mxCell id="i_B0SPoR_XHPY7qdFwwD-23" value="" style="shape=curlyBracket;whiteSpace=wrap;html=1;rounded=1;labelPosition=left;verticalLabelPosition=middle;align=right;verticalAlign=middle;" parent="1" vertex="1">
          <mxGeometry x="130" y="205" width="20" height="135" as="geometry" />
        </mxCell>
        <mxCell id="i_B0SPoR_XHPY7qdFwwD-24" value="" style="shape=curlyBracket;whiteSpace=wrap;html=1;rounded=1;labelPosition=left;verticalLabelPosition=middle;align=right;verticalAlign=middle;" parent="1" vertex="1">
          <mxGeometry x="130" y="350" width="20" height="400" as="geometry" />
        </mxCell>
        <mxCell id="i_B0SPoR_XHPY7qdFwwD-25" value="Level 1" style="text;html=1;align=center;verticalAlign=middle;resizable=0;points=[];autosize=1;strokeColor=none;fillColor=none;" parent="1" vertex="1">
          <mxGeometry x="70" y="250" width="60" height="30" as="geometry" />
        </mxCell>
        <mxCell id="i_B0SPoR_XHPY7qdFwwD-26" value="Level 2" style="text;html=1;align=center;verticalAlign=middle;resizable=0;points=[];autosize=1;strokeColor=none;fillColor=none;" parent="1" vertex="1">
          <mxGeometry x="70" y="535" width="60" height="30" as="geometry" />
        </mxCell>
        <mxCell id="i_B0SPoR_XHPY7qdFwwD-27" value="Level 2 - Sub systems" style="shape=umlFrame;whiteSpace=wrap;html=1;pointerEvents=0;width=140;height=30;" parent="1" vertex="1">
          <mxGeometry x="40" y="100" width="720" height="700" as="geometry" />
        </mxCell>
        <mxCell id="C2cPm4QwembAdfxZf4zH-4" style="edgeStyle=orthogonalEdgeStyle;rounded=0;orthogonalLoop=1;jettySize=auto;html=1;entryX=0;entryY=0.5;entryDx=0;entryDy=0;" edge="1" parent="1" source="C2cPm4QwembAdfxZf4zH-1" target="i_B0SPoR_XHPY7qdFwwD-2">
          <mxGeometry relative="1" as="geometry" />
        </mxCell>
        <mxCell id="C2cPm4QwembAdfxZf4zH-5" style="edgeStyle=orthogonalEdgeStyle;rounded=0;orthogonalLoop=1;jettySize=auto;html=1;entryX=0;entryY=0.5;entryDx=0;entryDy=0;" edge="1" parent="1" source="C2cPm4QwembAdfxZf4zH-1" target="i_B0SPoR_XHPY7qdFwwD-6">
          <mxGeometry relative="1" as="geometry" />
        </mxCell>
        <mxCell id="C2cPm4QwembAdfxZf4zH-6" style="edgeStyle=orthogonalEdgeStyle;rounded=0;orthogonalLoop=1;jettySize=auto;html=1;entryX=0;entryY=0.5;entryDx=0;entryDy=0;" edge="1" parent="1" source="C2cPm4QwembAdfxZf4zH-1" target="i_B0SPoR_XHPY7qdFwwD-11">
          <mxGeometry relative="1" as="geometry" />
        </mxCell>
        <mxCell id="C2cPm4QwembAdfxZf4zH-7" style="edgeStyle=orthogonalEdgeStyle;rounded=0;orthogonalLoop=1;jettySize=auto;html=1;entryX=0;entryY=0.5;entryDx=0;entryDy=0;" edge="1" parent="1" source="C2cPm4QwembAdfxZf4zH-1" target="i_B0SPoR_XHPY7qdFwwD-12">
          <mxGeometry relative="1" as="geometry" />
        </mxCell>
        <mxCell id="C2cPm4QwembAdfxZf4zH-8" style="edgeStyle=orthogonalEdgeStyle;rounded=0;orthogonalLoop=1;jettySize=auto;html=1;entryX=0;entryY=0.5;entryDx=0;entryDy=0;" edge="1" parent="1" source="C2cPm4QwembAdfxZf4zH-1" target="i_B0SPoR_XHPY7qdFwwD-13">
          <mxGeometry relative="1" as="geometry" />
        </mxCell>
        <mxCell id="C2cPm4QwembAdfxZf4zH-9" style="edgeStyle=orthogonalEdgeStyle;rounded=0;orthogonalLoop=1;jettySize=auto;html=1;entryX=0;entryY=0.5;entryDx=0;entryDy=0;" edge="1" parent="1" source="C2cPm4QwembAdfxZf4zH-1" target="i_B0SPoR_XHPY7qdFwwD-14">
          <mxGeometry relative="1" as="geometry" />
        </mxCell>
        <mxCell id="C2cPm4QwembAdfxZf4zH-1" value="User Management System" style="rounded=0;whiteSpace=wrap;html=1;" vertex="1" parent="1">
          <mxGeometry x="200" y="260" width="120" height="60" as="geometry" />
        </mxCell>
      </root>
    </mxGraphModel>
  </diagram>
</mxfile>
